<?xml version="1.0" encoding="UTF-8" standalone="no"?>
<!-- Created with Inkscape (http://www.inkscape.org/) -->

<svg
   xmlns:dc="http://purl.org/dc/elements/1.1/"
   xmlns:cc="http://creativecommons.org/ns#"
   xmlns:rdf="http://www.w3.org/1999/02/22-rdf-syntax-ns#"
   xmlns:svg="http://www.w3.org/2000/svg"
   xmlns="http://www.w3.org/2000/svg"
   xmlns:sodipodi="http://sodipodi.sourceforge.net/DTD/sodipodi-0.dtd"
   xmlns:inkscape="http://www.inkscape.org/namespaces/inkscape"
   width="154.1149mm"
   height="51.435612mm"
   viewBox="0 0 154.1149 51.435612"
   version="1.1"
   id="svg8"
   inkscape:version="0.92.4 (f8dce91, 2019-08-02)"
   sodipodi:docname="logodraw.svg">
  <defs
     id="defs2" />
  <sodipodi:namedview
     id="base"
     pagecolor="#ffffff"
     bordercolor="#666666"
     borderopacity="1.0"
     inkscape:pageopacity="0.0"
     inkscape:pageshadow="2"
     inkscape:zoom="0.7"
     inkscape:cx="304.23532"
     inkscape:cy="58.939904"
     inkscape:document-units="mm"
     inkscape:current-layer="layer1"
     showgrid="false"
     showguides="false"
     fit-margin-left="-0.3"
     fit-margin-top="0"
     fit-margin-right="0"
     fit-margin-bottom="0"
     inkscape:window-width="1299"
     inkscape:window-height="713"
     inkscape:window-x="67"
     inkscape:window-y="27"
     inkscape:window-maximized="1" />
  <metadata
     id="metadata5">
    <rdf:RDF>
      <cc:Work
         rdf:about="">
        <dc:format>image/svg+xml</dc:format>
        <dc:type
           rdf:resource="http://purl.org/dc/dcmitype/StillImage" />
        <dc:title></dc:title>
      </cc:Work>
    </rdf:RDF>
  </metadata>
  <g
     inkscape:label="Layer 1"
     inkscape:groupmode="layer"
     id="layer1"
     transform="translate(-79.040118,-107.98139)">
    <text
       xml:space="preserve"
       style="font-style:normal;font-variant:normal;font-weight:normal;font-stretch:normal;font-size:70.55555725px;line-height:1.25;font-family:sans-serif;-inkscape-font-specification:'sans-serif, Normal';font-variant-ligatures:normal;font-variant-caps:normal;font-variant-numeric:normal;font-feature-settings:normal;text-align:start;letter-spacing:0px;word-spacing:0px;writing-mode:lr-tb;text-anchor:start;fill:#ffe400;fill-opacity:1;stroke:none;stroke-width:0.26458332"
       x="71.815475"
       y="159.41667"
       id="text817"><tspan
         sodipodi:role="line"
         id="tspan815"
         x="71.815475"
         y="159.41667"
         style="font-style:normal;font-variant:normal;font-weight:normal;font-stretch:normal;font-size:70.55555725px;font-family:sans-serif;-inkscape-font-specification:'sans-serif, Normal';font-variant-ligatures:normal;font-variant-caps:normal;font-variant-numeric:normal;font-feature-settings:normal;text-align:start;writing-mode:lr-tb;text-anchor:start;fill:#ffe400;fill-opacity:1;stroke-width:0.26458332">L</tspan></text>
    <text
       xml:space="preserve"
       style="font-style:normal;font-variant:normal;font-weight:normal;font-stretch:normal;font-size:52.91666794px;line-height:1.25;font-family:sans-serif;-inkscape-font-specification:'sans-serif, Normal';font-variant-ligatures:normal;font-variant-caps:normal;font-variant-numeric:normal;font-feature-settings:normal;text-align:start;letter-spacing:0px;word-spacing:0px;writing-mode:lr-tb;text-anchor:start;fill:#ffffff;fill-opacity:1;stroke:none;stroke-width:0.26458332;"
       x="114.5268"
       y="159.41701"
       id="text823"><tspan
         sodipodi:role="line"
         id="tspan821"
         x="114.5268"
         y="159.41701"
         style="font-style:normal;font-variant:normal;font-weight:normal;font-stretch:normal;font-size:52.91666794px;font-family:sans-serif;-inkscape-font-specification:'sans-serif, Normal';font-variant-ligatures:normal;font-variant-caps:normal;font-variant-numeric:normal;font-feature-settings:normal;text-align:start;writing-mode:lr-tb;text-anchor:start;stroke-width:0.26458332;fill:#ffffff;fill-opacity:1;">T</tspan></text>
    <text
       xml:space="preserve"
       style="font-style:normal;font-variant:normal;font-weight:normal;font-stretch:normal;font-size:28.22222137px;line-height:1.25;font-family:sans-serif;-inkscape-font-specification:'sans-serif, Normal';font-variant-ligatures:normal;font-variant-caps:normal;font-variant-numeric:normal;font-feature-settings:normal;text-align:start;letter-spacing:0px;word-spacing:0px;writing-mode:lr-tb;text-anchor:start;fill:#ffffff;fill-opacity:1;stroke:none;stroke-width:0.26458332;"
       x="90.147331"
       y="149.96725"
       id="text827"><tspan
         sodipodi:role="line"
         id="tspan825"
         x="90.147331"
         y="149.96725"
         style="font-style:normal;font-variant:normal;font-weight:normal;font-stretch:normal;font-size:28.22222137px;font-family:sans-serif;-inkscape-font-specification:'sans-serif, Normal';font-variant-ligatures:normal;font-variant-caps:normal;font-variant-numeric:normal;font-feature-settings:normal;text-align:start;writing-mode:lr-tb;text-anchor:start;stroke-width:0.26458332;fill:#ffffff;fill-opacity:1;">oc</tspan></text>
    <text
       xml:space="preserve"
       style="font-style:normal;font-variant:normal;font-weight:normal;font-stretch:normal;font-size:28.22222137px;line-height:1.25;font-family:sans-serif;-inkscape-font-specification:'sans-serif, Normal';font-variant-ligatures:normal;font-variant-caps:normal;font-variant-numeric:normal;font-feature-settings:normal;text-align:start;letter-spacing:0px;word-spacing:0px;writing-mode:lr-tb;text-anchor:start;fill:#ffffff;fill-opacity:1;stroke:none;stroke-width:0.26458332;"
       x="139.09525"
       y="149.96736"
       id="text831"><tspan
         sodipodi:role="line"
         id="tspan829"
         x="139.09525"
         y="149.96736"
         style="font-style:normal;font-variant:normal;font-weight:normal;font-stretch:normal;font-size:28.22222137px;font-family:sans-serif;-inkscape-font-specification:'sans-serif, Normal';font-variant-ligatures:normal;font-variant-caps:normal;font-variant-numeric:normal;font-feature-settings:normal;text-align:start;writing-mode:lr-tb;text-anchor:start;stroke-width:0.26458332;fill:#ffffff;fill-opacity:1;">ech</tspan></text>
    <g
       id="g891"
       transform="matrix(0.31310346,0,0,0.31230763,166.64195,200.31643)"
       style="fill:#ffe400;fill-opacity:1">
      <g
         id="g835"
         transform="matrix(5.2367944,0,0,4.8461695,79.999777,-255.77351)"
         style="fill:#ffe400;fill-opacity:1">
	<path
   id="path833"
   d="M 25.287,5.168 C 25.34,4.22 24.149,3.82 23.891,3.179 24.068,2.996 24.264,1.854 24.214,1.496 24.165,1.15 23.385,1.941 23.247,1.783 23.09,1.6 23.356,0.812 23.067,0.406 22.92,0.199 22.584,1.733 22.33,1.848 22.147,1.93 21.828,1.497 21.502,0.898 20.969,-0.081 21.263,2.027 21.314,2.429 19.901,2.645 19.016,3.582 18.618,4.798 18.18,6.135 16.957,9.111 14.707,9.252 12.004,9.422 8.989,6.894 7.567,5.438 6.81,4.665 6.257,2.439 4.931,2.611 4.332,2.689 3.861,3.535 3.16,3.717 c 0,0 -3.6,0.889 -3.115,1.856 0.286,0.569 1.859,1.316 3.06,1.82 C 3.158,7.414 3.187,7.474 3.17,7.528 3.153,7.584 3.098,7.617 3.042,7.608 2.012,7.425 0.988,7.386 2.012,8.265 2.265,8.482 3.214,8.94 4.104,9.347 4.157,9.37 4.184,9.431 4.164,9.486 4.145,9.541 4.088,9.573 4.031,9.559 3.31,9.384 2.655,9.308 2.695,9.623 c 0.089,0.71 2.828,2.794 2.828,2.794 -0.347,0.426 1.065,1.955 1.29,2.147 -0.324,-0.108 -0.673,0.016 -0.214,0.431 0.676,0.614 0.826,1.604 1.404,2.178 1.699,1.689 4.248,0.415 5.561,3.267 0.068,0.148 0.367,0.747 0.624,1.27 0.077,0.156 0.077,0.339 10e-4,0.495 -0.077,0.156 -0.222,0.269 -0.392,0.304 l -1.699,0.352 c -0.247,0.051 -0.421,0.28 -0.397,0.537 0.026,0.274 0.27,0.478 0.545,0.451 l 1.68,-0.157 c 0.056,-0.005 0.11,0.024 0.137,0.074 0.027,0.05 0.02,0.111 -0.017,0.155 l -0.134,0.161 c -0.176,0.212 -0.147,0.527 0.065,0.704 0.093,0.077 0.206,0.115 0.319,0.115 0.144,0 0.285,-0.062 0.385,-0.181 l 0.707,-0.851 c 0.134,-0.161 0.346,-0.234 0.551,-0.19 l 2.476,0.532 c 0.246,0.053 0.498,-0.087 0.58,-0.331 0.088,-0.262 -0.054,-0.546 -0.316,-0.634 l -2.234,-0.747 c -0.203,-0.067 -0.351,-0.246 -0.379,-0.458 -0.054,-0.398 -0.124,-0.9 -0.173,-1.284 -0.033,-0.258 0.125,-0.502 0.373,-0.577 1.134,-0.34 1.741,-1.725 2.477,-2.658 0.337,-0.43 0.813,-0.722 1.348,-0.831 2.928,-0.597 3.921,-3.638 4.229,-6.854 C 24.502,7.939 23.61,7.17 23.138,5.757 23.731,5.579 24.381,4.692 25.287,5.168 Z M 22.065,4.111 c -0.218,0 -0.393,-0.176 -0.393,-0.394 0,-0.22 0.176,-0.396 0.393,-0.396 0.223,0 0.394,0.176 0.394,0.396 0,0.218 -0.172,0.394 -0.394,0.394 z"
   style="fill:#ffe400;fill-opacity:1"
   inkscape:connector-curvature="0" />

</g>
      <g
         id="g837"
         style="fill:#ffe400;fill-opacity:1">
</g>
      <g
         id="g839"
         style="fill:#ffe400;fill-opacity:1">
</g>
      <g
         id="g841"
         style="fill:#ffe400;fill-opacity:1">
</g>
      <g
         id="g843"
         style="fill:#ffe400;fill-opacity:1">
</g>
      <g
         id="g845"
         style="fill:#ffe400;fill-opacity:1">
</g>
      <g
         id="g847"
         style="fill:#ffe400;fill-opacity:1">
</g>
      <g
         id="g849"
         style="fill:#ffe400;fill-opacity:1">
</g>
      <g
         id="g851"
         style="fill:#ffe400;fill-opacity:1">
</g>
      <g
         id="g853"
         style="fill:#ffe400;fill-opacity:1">
</g>
      <g
         id="g855"
         style="fill:#ffe400;fill-opacity:1">
</g>
      <g
         id="g857"
         style="fill:#ffe400;fill-opacity:1">
</g>
      <g
         id="g859"
         style="fill:#ffe400;fill-opacity:1">
</g>
      <g
         id="g861"
         style="fill:#ffe400;fill-opacity:1">
</g>
      <g
         id="g863"
         style="fill:#ffe400;fill-opacity:1">
</g>
      <g
         id="g865"
         style="fill:#ffe400;fill-opacity:1">
</g>
    </g>
  </g>
</svg>
