<svg xmlns="http://www.w3.org/2000/svg" width="80" height="66.058" viewBox="0 0 80 66.058"><defs><style>.a{fill:#ffe400;}</style></defs><g transform="translate(0)"><path class="a" d="M118.837,32.933c2.451-9.34-1.55-22.18-16.131-28.3A56.011,56.011,0,0,0,72.432,1.962C58.3,4.613,47.913,11.727,44.646,20.992a13.545,13.545,0,0,0-.915,5.772,14.334,14.334,0,0,0,.948,3.567,11.212,11.212,0,0,1,.938,4.575c-.066,1.844-1.877,3.758-3.476,5.447-1.744,1.843-3.25,3.434-2.376,4.9a5.621,5.621,0,0,0,3.922,1.763,2.65,2.65,0,0,0,.285.02,1.9,1.9,0,0,1,1.193.277.9.9,0,0,1,.452.823c0,2.287.081,3.467,1.428,4.009a1.62,1.62,0,0,0-.244.543,1.677,1.677,0,0,0,.884,1.735,5.7,5.7,0,0,0,2.488.891l.19.029a1.993,1.993,0,0,1,.049.5,8.383,8.383,0,0,1-.124,1.224c-.261,1.761-.617,4.172,4.4,5.323a14.533,14.533,0,0,0,3.1.264,67.981,67.981,0,0,0,13.947-1.876,10.013,10.013,0,0,1,2.291,5.181.969.969,0,0,0,.459.778,1.957,1.957,0,0,0,1.11.322h39.221a1.6,1.6,0,0,0,1.465-.761.958.958,0,0,0-.561-1.239c-1.623-.865-7-9.975-7.164-13.247.474-.755,1.108-1.6,1.86-2.586A43.16,43.16,0,0,0,118.837,32.933ZM105.409,51.7c.04,2.632,3.422,9.587,6.328,13.157h-34.7a12.88,12.88,0,0,0-2.306-4.828c4.545-1.25,8.55-2.857,10.472-4.62a.9.9,0,0,0-.3-1.541,2.046,2.046,0,0,0-2.2.2c-4.44,4.076-22.914,7.17-27.038,6.224-2.612-.6-2.508-1.3-2.257-3a9.784,9.784,0,0,0,.141-1.452c0-1.855-1.066-2.408-2.669-2.669a2.572,2.572,0,0,1-.844-.229,4.686,4.686,0,0,1,1.037-.515c.655-.226,1-.738.837-1.237a1.556,1.556,0,0,0-1.528-.852c-.567,0-1.2,0-1.527-.029a11.955,11.955,0,0,1-.1-2.171,2.794,2.794,0,0,0-1.3-2.329,5.7,5.7,0,0,0-3.288-.97c-1.131-.167-1.474-.382-1.5-.432-.228-.382,1.284-1.978,2.1-2.836,1.742-1.84,3.91-4.131,4-6.609a11.089,11.089,0,0,0-.648-4.083,18.357,18.357,0,0,1,5.916-2.289,6.856,6.856,0,0,1,2.332.114,1.724,1.724,0,0,0,1.929-.768c.23-.586-.26-1.192-1.1-1.353a11.175,11.175,0,0,0-3.815-.147,19.563,19.563,0,0,0-6.079,2.118,9.527,9.527,0,0,1-.434-1.949,11.732,11.732,0,0,1,.832-5.085c3.034-8.6,12.345-14.955,25.552-17.433a51.528,51.528,0,0,1,27.85,2.436c13.3,5.579,16.919,17.394,14.657,26.01a41.005,41.005,0,0,1-8.1,15.652,34.092,34.092,0,0,0-2.145,3.006A.787.787,0,0,0,105.409,51.7Z" transform="translate(-39.51 -1)"/><path class="a" d="M185.15,65.316c.224-1.7-1.432-3.236-3.822-3.548l-3-2.922a2.779,2.779,0,0,0,.42-.755l2.909-.816a6.144,6.144,0,0,0,5.389.85c1.869-.566,3-1.913,2.813-3.335s-1.669-2.595-3.657-2.9l-2.357-3.3a2.612,2.612,0,0,0,.333-4.341,6.112,6.112,0,0,0-6.1-.779l-2.628-1.531a2.432,2.432,0,0,0,.307-1.142c0-1.348-1.163-2.563-2.947-3.065a6.189,6.189,0,0,0-5.15.785l-4.651-.816c-.557-1.415-2.387-2.4-4.48-2.408s-3.94.959-4.521,2.37l-6.216.872a6.205,6.205,0,0,0-6.216-.409c-1.918.993-2.467,2.839-1.274,4.288l-3.046,2.846c-2.183.277-3.791,1.588-3.856,3.143s1.431,2.93,3.587,3.3l2.519,4.362a2.631,2.631,0,0,0-1.028,3.65,5.1,5.1,0,0,0,4.474,2,4.844,4.844,0,0,0,4.276-2.2h8.423c.7,1.518,2.9,2.436,5.135,2.15l5.208,5.558A2.57,2.57,0,0,0,165.361,71a5.505,5.505,0,0,0,4.884,1.67c1.968-.228,3.516-1.3,3.86-2.682l3.888-2.18a6.2,6.2,0,0,0,2.471.5C182.894,68.312,184.926,67.014,185.15,65.316ZM185.17,54a1.492,1.492,0,0,1,1.557.95c.108.545-.376,1.062-1.131,1.211a1.824,1.824,0,0,1-1.863-.623c-.005-.01,0-.021-.008-.031l-.01-.011a.813.813,0,0,1-.114-.4C183.6,54.5,184.3,54,185.17,54Zm-6.242-7.928a1.537,1.537,0,0,1,1.536-.877c.866,0,1.569.493,1.569,1.1s-.7,1.1-1.569,1.1a2.136,2.136,0,0,1-.566-.08l-.013-.006c-.014,0-.028,0-.042-.006C179.159,47.1,178.777,46.585,178.928,46.074Zm-1.561,2.691h0l-2.9,5.085L169.386,51a3.445,3.445,0,0,0,1.451-1.566l6.216-.872C177.151,48.633,177.259,48.7,177.367,48.765ZM175.7,57.6a1.662,1.662,0,0,1-1.724.793c-.776-.075-1.354-.541-1.354-1.09,0-.608.7-1.1,1.569-1.1a2.136,2.136,0,0,1,.566.08l.013.006c.014,0,.029,0,.043.006C175.53,56.515,175.908,57.072,175.7,57.6Zm-4.646-17.908c.866,0,1.569.493,1.569,1.1s-.7,1.1-1.569,1.1-1.569-.493-1.569-1.1S170.184,39.695,171.051,39.694Zm-8.256.237,3.583.629a2.249,2.249,0,0,0-.034.235c0,1.823,2.108,3.3,4.707,3.3a6.212,6.212,0,0,0,2.386-.472l2.628,1.531a2.433,2.433,0,0,0-.308,1.142c0,.067.023.129.028.195l-5.11.717a4.787,4.787,0,0,0-3.609-1.961l-5.744-4.03A3.857,3.857,0,0,0,162.795,39.931Zm5.118,8.568c0,.608-.7,1.1-1.569,1.1s-1.568-.493-1.569-1.1.7-1.1,1.569-1.1S167.913,47.891,167.913,48.5ZM158.5,37.493c.866,0,1.569.493,1.569,1.1s-.7,1.1-1.569,1.1-1.569-.493-1.569-1.1S157.634,37.493,158.5,37.493Zm.311,5.077,4.71,3.3a3.67,3.67,0,0,0-1.594,1.525h-3.716a3.9,3.9,0,0,0-2.045-1.735Zm-9.752-1.97,5.11-.717a4.062,4.062,0,0,0,1.959,1.546l-2.848,3.33-4.923-2.216a2.616,2.616,0,0,0,.73-1.748C149.087,40.728,149.064,40.666,149.059,40.6Zm6.3,7.9c0,.608-.7,1.1-1.569,1.1s-1.568-.493-1.569-1.1.7-1.1,1.569-1.1S155.362,47.891,155.362,48.5ZM144.38,39.694c.866,0,1.569.493,1.569,1.1s-.7,1.1-1.569,1.1-1.569-.493-1.569-1.1S143.514,39.695,144.38,39.694Zm-1.708,4.169a6.17,6.17,0,0,0,3.006.089l4.844,2.18a3.418,3.418,0,0,0-1.146,1.265h-6.854a3.8,3.8,0,0,0-1.854-1.662ZM138.1,49.6c-.866,0-1.569-.493-1.569-1.1s.7-1.1,1.569-1.1,1.569.493,1.569,1.1S138.971,49.6,138.1,49.6Zm4.707,9.906c-.866,0-1.569-.493-1.569-1.1s.7-1.1,1.569-1.1,1.569.493,1.569,1.1S143.677,59.5,142.811,59.505Zm.892-4.339a6.648,6.648,0,0,0-.892-.063c-.155,0-.3.022-.454.032l-2.138-3.7a4.023,4.023,0,0,0,2.3-1.833h6.854a3.577,3.577,0,0,0,1.417,1.422ZM155.651,57.3h-8.423a3.176,3.176,0,0,0-.716-.914l7.7-4.5,2.624,4.128A3.448,3.448,0,0,0,155.651,57.3Zm2.559-7.7h3.716a3.9,3.9,0,0,0,2.045,1.735l-3.262,3.814q-.318-.038-.641-.046c-.122,0-.236.019-.355.025l-2.693-4.238A3.449,3.449,0,0,0,158.211,49.6Zm1.858,9.906c-.866,0-1.569-.493-1.569-1.1s.7-1.1,1.569-1.1,1.569.493,1.569,1.1S160.935,59.5,160.069,59.505Zm6.7-7.159,4.381,2.459a3.448,3.448,0,0,0-1.451,1.566l-5.3.743a3.493,3.493,0,0,0-.9-.953Zm2.716,18.165c-.866,0-1.569-.493-1.569-1.1s.7-1.1,1.569-1.1,1.569.493,1.569,1.1S170.348,70.511,169.482,70.512Zm6.275-5.5a2.417,2.417,0,0,0,.279,1.078l-2.648,1.485a5.465,5.465,0,0,0-4.624-1.411L163.556,60.6a3.2,3.2,0,0,0,1.005-1.265l5.3-.743c1.01,1.673,3.758,2.458,6.146,1.756l1.935,1.882A3.236,3.236,0,0,0,175.757,65.009Zm1.528-10.171,2.993-5.251c.063,0,.122.013.185.013.189-.005.377-.019.564-.04l1.9,2.658a3.349,3.349,0,0,0-2.464,2.885c0,.045.016.086.019.13l-2.109.592A3.774,3.774,0,0,0,177.285,54.837Zm3.179,11.272c-.866,0-1.569-.493-1.569-1.1s.7-1.1,1.569-1.1,1.569.493,1.569,1.1S181.33,66.109,180.464,66.109Z" transform="translate(-116.137 -30.869)"/></g></svg>