<svg xmlns="http://www.w3.org/2000/svg" width="30" height="26" viewBox="0 0 30 26"><defs><style>.a{fill:#fff;}</style></defs><path class="a" d="M30.423,8.568a4.308,4.308,0,0,0-2.652-3.29C25.431,4.5,16.05,4.5,16.05,4.5s-9.381,0-11.721.778a4.308,4.308,0,0,0-2.652,3.29,59.845,59.845,0,0,0-.627,8.958,59.845,59.845,0,0,0,.627,8.958,4.225,4.225,0,0,0,2.652,3.238c2.34.778,11.721.778,11.721.778s9.381,0,11.721-.778a4.225,4.225,0,0,0,2.652-3.238,59.845,59.845,0,0,0,.627-8.958,59.845,59.845,0,0,0-.627-8.958ZM12.982,23.024v-11l7.841,5.5-7.841,5.5Z" transform="translate(-1.05 -4.5)"/></svg>