<svg xmlns="http://www.w3.org/2000/svg" width="25" height="26" viewBox="0 0 25 26"><defs><style>.a{fill:#fff;}</style></defs><path class="a" d="M12.5.563a12.755,12.755,0,0,0-12.5,13,12.755,12.755,0,0,0,12.5,13,12.755,12.755,0,0,0,12.5-13A12.755,12.755,0,0,0,12.5.563Zm6.139,8.906L16.588,19.523c-.151.713-.559.886-1.129.55l-3.125-2.4-1.507,1.51a.779.779,0,0,1-.63.32l.222-3.308,5.791-5.441c.252-.231-.055-.362-.388-.131L8.664,15.313l-3.085-1c-.67-.22-.685-.7.141-1.033L17.772,8.446c.559-.21,1.048.142.867,1.022Z" transform="translate(0 -0.563)"/></svg>