<svg xmlns="http://www.w3.org/2000/svg" width="76.966" height="72" viewBox="0 0 76.966 72"><defs><style>.a{opacity:0.8;}.b{fill:#ffe400;}</style></defs><g class="a"><path class="b" d="M1.241,29.866H8.128a18.462,18.462,0,0,0,1.749,4.206L5,38.945A1.242,1.242,0,0,0,5,40.7l5.266,5.268a1.243,1.243,0,0,0,1.755,0L16.9,41.094a18.449,18.449,0,0,0,4.2,1.748v6.887a1.241,1.241,0,0,0,1.241,1.241h7.448a1.241,1.241,0,0,0,1.241-1.241V42.842a18.449,18.449,0,0,0,4.2-1.748l4.875,4.875a1.278,1.278,0,0,0,1.755,0L47.137,40.7a1.242,1.242,0,0,0,0-1.756l-4.875-4.872a18.462,18.462,0,0,0,1.749-4.206H50.9a1.241,1.241,0,0,0,1.241-1.241V21.177A1.242,1.242,0,0,0,50.9,19.935H44.01a18.468,18.468,0,0,0-1.749-4.206l4.874-4.872a1.242,1.242,0,0,0,0-1.756L41.869,3.833a1.242,1.242,0,0,0-1.755,0L35.239,8.709a18.5,18.5,0,0,0-4.2-1.748V.073a1.242,1.242,0,0,0-1.241-1.241H22.345A1.242,1.242,0,0,0,21.1.073V6.961a18.5,18.5,0,0,0-4.2,1.748L12.024,3.833a1.278,1.278,0,0,0-1.755,0L5,9.1a1.242,1.242,0,0,0,0,1.756L9.877,15.73a18.467,18.467,0,0,0-1.749,4.206H1.241A1.242,1.242,0,0,0,0,21.177v7.448a1.241,1.241,0,0,0,1.241,1.241Zm1.241-7.448H9.1a1.241,1.241,0,0,0,1.213-.976,15.971,15.971,0,0,1,2.175-5.231,1.242,1.242,0,0,0-.168-1.548L7.634,9.979l3.512-3.512,4.684,4.685a1.242,1.242,0,0,0,1.549.168,16,16,0,0,1,5.231-2.175,1.243,1.243,0,0,0,.976-1.213V1.315h4.966V7.931a1.243,1.243,0,0,0,.976,1.213,16,16,0,0,1,5.231,2.175,1.242,1.242,0,0,0,1.549-.168l4.684-4.685L44.5,9.979l-4.684,4.683a1.242,1.242,0,0,0-.168,1.549,15.967,15.967,0,0,1,2.173,5.232,1.242,1.242,0,0,0,1.213.976h6.618v4.966H43.037a1.242,1.242,0,0,0-1.213.976,15.952,15.952,0,0,1-2.173,5.23,1.242,1.242,0,0,0,.168,1.548L44.5,39.823l-3.512,3.513-4.684-4.685a1.242,1.242,0,0,0-1.549-.168,15.959,15.959,0,0,1-5.23,2.175,1.242,1.242,0,0,0-.977,1.213v6.617H23.586V41.871a1.242,1.242,0,0,0-.977-1.213,15.96,15.96,0,0,1-5.23-2.175,1.242,1.242,0,0,0-1.549.168l-4.684,4.685L7.635,39.824l4.684-4.684a1.242,1.242,0,0,0,.168-1.549,15.976,15.976,0,0,1-2.175-5.232A1.241,1.241,0,0,0,9.1,27.384H2.483Zm0,0" transform="translate(0 1.168)"/><path class="b" d="M139.931,148.694A9.931,9.931,0,1,0,130,138.763,9.931,9.931,0,0,0,139.931,148.694Zm0-17.379a7.448,7.448,0,1,1-7.448,7.448A7.449,7.449,0,0,1,139.931,131.315Zm0,0" transform="translate(-113.862 -112.694)"/><path class="b" d="M113.655,126.142A13.655,13.655,0,1,0,100,112.487,13.655,13.655,0,0,0,113.655,126.142Zm0-24.828a11.172,11.172,0,1,1-11.172,11.172A11.172,11.172,0,0,1,113.655,101.315Zm0,0" transform="translate(-87.586 -86.418)"/><path class="b" d="M70.759,301.177v-9.931A1.242,1.242,0,0,0,69.517,290H67.035v-9.931a1.242,1.242,0,0,0-1.241-1.241H54.621a1.242,1.242,0,0,0-1.241,1.241V290H47.172a1.242,1.242,0,0,0-1.241,1.241v9.931H6.207A6.215,6.215,0,0,0,0,307.384v2.483a6.214,6.214,0,0,0,6.207,6.207H70.759a6.214,6.214,0,0,0,6.207-6.207v-2.483A6.215,6.215,0,0,0,70.759,301.177Zm-2.483,0h-8.69v-8.69h8.69ZM55.862,281.315h8.69V290h-8.69Zm-7.448,11.172H57.1v8.69h-8.69Zm26.069,17.379a3.724,3.724,0,0,1-3.724,3.724H6.207a3.724,3.724,0,0,1-3.724-3.724v-2.483a3.724,3.724,0,0,1,3.724-3.724H70.759a3.724,3.724,0,0,1,3.724,3.724Zm0,0" transform="translate(0 -244.073)"/><path class="b" d="M283.724,488.832a3.724,3.724,0,1,0,3.724,3.724A3.725,3.725,0,0,0,283.724,488.832Zm0,4.966a1.241,1.241,0,1,1,1.241-1.241A1.241,1.241,0,0,1,283.724,493.8Zm0,0" transform="translate(-245.241 -428.004)"/><path class="b" d="M183.724,488.832a3.724,3.724,0,1,0,3.724,3.724A3.724,3.724,0,0,0,183.724,488.832Zm0,4.966a1.241,1.241,0,1,1,1.241-1.241A1.241,1.241,0,0,1,183.724,493.8Zm0,0" transform="translate(-157.655 -428.004)"/><path class="b" d="M383.724,488.832a3.724,3.724,0,1,0,3.724,3.724A3.724,3.724,0,0,0,383.724,488.832Zm0,4.966a1.241,1.241,0,1,1,1.241-1.241A1.241,1.241,0,0,1,383.724,493.8Zm0,0" transform="translate(-332.828 -428.004)"/><path class="b" d="M83.724,488.832a3.724,3.724,0,1,0,3.724,3.724A3.725,3.725,0,0,0,83.724,488.832Zm0,4.966a1.241,1.241,0,1,1,1.241-1.241A1.241,1.241,0,0,1,83.724,493.8Zm0,0" transform="translate(-70.069 -428.004)"/><path class="b" d="M483.724,488.832a3.724,3.724,0,1,0,3.724,3.724A3.724,3.724,0,0,0,483.724,488.832Zm0,4.966a1.241,1.241,0,1,1,1.241-1.241A1.241,1.241,0,0,1,483.724,493.8Zm0,0" transform="translate(-420.414 -428.004)"/></g></svg>