<svg xmlns="http://www.w3.org/2000/svg" width="80" height="66.058" viewBox="0 0 80 66.058"><defs><style>.a{fill:#ffe400;}</style></defs><path class="a" d="M191.2,63.945c-6.627,0-12,4.63-12,10.341s5.373,10.341,12,10.341,12-4.63,12-10.341S197.823,63.952,191.2,63.945Zm0,18.384c-5.154,0-9.333-3.6-9.333-8.043s4.179-8.043,9.333-8.043,9.333,3.6,9.333,8.043S196.351,82.324,191.2,82.329Zm0,0" transform="translate(-151.201 -55.337)"/><path class="a" d="M220,98.078c-3.681,0-6.667,2.572-6.667,5.745s2.985,5.745,6.667,5.745,6.667-2.572,6.667-5.745S223.678,98.082,220,98.078Zm0,9.192a3.485,3.485,0,1,1,4-3.447A3.755,3.755,0,0,1,220,107.27Zm0,0" transform="translate(-180 -84.874)"/><path class="a" d="M153.6,24.705a2.505,2.505,0,0,0,2.667-2.3V15.514a2.506,2.506,0,0,0-2.667-2.3h-4a14.208,14.208,0,0,0-2.226-3.326l1.992-2.977a2.021,2.021,0,0,0,.278-1.747,2.375,2.375,0,0,0-1.243-1.4L141.466.317l-.013-.006a2.9,2.9,0,0,0-3.622.852l-2,2.983a20.54,20.54,0,0,0-4.469,0l-1.989-2.972a2.916,2.916,0,0,0-3.642-.857L118.8,3.766a2.373,2.373,0,0,0-1.238,1.4,2.021,2.021,0,0,0,.273,1.743l2,2.983a14.208,14.208,0,0,0-2.226,3.326h-4a2.506,2.506,0,0,0-2.667,2.3v6.894a2.505,2.505,0,0,0,2.667,2.3h4a14.211,14.211,0,0,0,2.226,3.327l-1.992,2.976a2.022,2.022,0,0,0-.278,1.747,2.374,2.374,0,0,0,1.243,1.4l6.945,3.453a3.009,3.009,0,0,0,1.315.3,2.737,2.737,0,0,0,2.306-1.149l2-2.984a20.474,20.474,0,0,0,4.469,0l1.99,2.973a2.916,2.916,0,0,0,3.643.856l6.936-3.449a2.375,2.375,0,0,0,1.238-1.4,2.022,2.022,0,0,0-.273-1.743l-2-2.982a14.21,14.21,0,0,0,2.226-3.327Zm-6.18-1.525a12.073,12.073,0,0,1-2.673,4A1.024,1.024,0,0,0,144.6,28.5l2.461,3.67-6.924,3.444-2.454-3.665a1.416,1.416,0,0,0-1.4-.556,17.377,17.377,0,0,1-5.385,0,1.413,1.413,0,0,0-1.4.556l-2.445,3.669-6.925-3.451,2.453-3.665a1.025,1.025,0,0,0-.142-1.321,12.06,12.06,0,0,1-2.673-4,1.335,1.335,0,0,0-1.26-.773H113.6V15.514h4.92a1.335,1.335,0,0,0,1.259-.773,12.074,12.074,0,0,1,2.674-3.995,1.026,1.026,0,0,0,.142-1.322l-2.462-3.67,6.924-3.444,2.454,3.665a1.409,1.409,0,0,0,1.4.556,17.409,17.409,0,0,1,5.385,0,1.415,1.415,0,0,0,1.4-.555l2.444-3.665h0l.008,0,6.914,3.447L144.6,9.426a1.025,1.025,0,0,0,.142,1.321,12.071,12.071,0,0,1,2.673,4,1.336,1.336,0,0,0,1.26.772h4.92v6.894h-4.92a1.335,1.335,0,0,0-1.26.773Zm0,0" transform="translate(-93.601 -0.011)"/><path class="a" d="M4,291.234h6.666a4.28,4.28,0,0,0,2.96-1.149H47.065a11.966,11.966,0,0,0,5.545-1.34L77.6,275.634a4.363,4.363,0,0,0,2.3-2.857,3.774,3.774,0,0,0-.834-3.3,1.154,1.154,0,0,0-.077-.1,5.461,5.461,0,0,0-5.566-1.5L48.75,274.97a4.615,4.615,0,0,1-1.266.177h-.766a4.651,4.651,0,0,0-.5-4.524l-.12-.171a8.383,8.383,0,0,0-6.861-3.347H32.268a12.01,12.01,0,0,1-6.768-2.046,14.977,14.977,0,0,0-8.435-2.55H14.421a4,4,0,0,0-3.754-2.3H4a3.759,3.759,0,0,0-4,3.447v24.129a3.759,3.759,0,0,0,4,3.447Zm19.833-24.381a14.969,14.969,0,0,0,8.434,2.549H39.24a5.586,5.586,0,0,1,4.573,2.231l.12.171a2.667,2.667,0,0,1-.2,3.343h-8.1a14.859,14.859,0,0,0-7.4,1.93l-.977.561a1.108,1.108,0,0,0-.6,1.032,1.159,1.159,0,0,0,.743.961,1.519,1.519,0,0,0,1.337-.082l.977-.561a11.881,11.881,0,0,1,5.916-1.544H47.483a7.657,7.657,0,0,0,2.109-.295l24.68-7.089a2.543,2.543,0,0,1,2.517.6c.023.034.049.066.076.1a1.792,1.792,0,0,1,.422,1.577,2.028,2.028,0,0,1-1.071,1.33l-24.992,13.11a8.993,8.993,0,0,1-4.16,1h-32.4v-22.98h2.4a12.013,12.013,0,0,1,6.769,2.047Zm-21.166-3.2A1.253,1.253,0,0,1,4,262.509h6.666A1.253,1.253,0,0,1,12,263.658v24.129a1.253,1.253,0,0,1-1.334,1.149H4a1.253,1.253,0,0,1-1.334-1.149Zm0,0" transform="translate(0 -225.175)"/></svg>