<svg xmlns="http://www.w3.org/2000/svg" width="80" height="66.058" viewBox="0 0 80 66.058"><defs><style>.a{fill:#ffe400;}</style></defs><path class="a" d="M69.095,48.443a12.256,12.256,0,0,0-.032-5.615l6.113-12.169a.146.146,0,0,0,0-.024,20.156,20.156,0,0,1,4.291-6.146,1.451,1.451,0,0,0,.493-1.5l-2.507-8.929a.981.981,0,0,0-.133-.266c-.011-.017-.015-.036-.025-.052s-.057-.053-.084-.081a1.2,1.2,0,0,0-.188-.182,1.313,1.313,0,0,0-.145-.073,1.44,1.44,0,0,0-.207-.1,1.554,1.554,0,0,0-.312-.063c-.031,0-.057-.017-.088-.019a1.571,1.571,0,0,0-.735.135c-.02.009-.044.012-.064.022h-.013l-9.425,4.852a1.613,1.613,0,0,0-.942,1.354,17.916,17.916,0,0,1-2.244,6.862v.012L59.79,32.548a20.49,20.49,0,0,0-4.768-1.42A49.207,49.207,0,0,0,55.713,20.3a10.667,10.667,0,0,0,3.313-8.821C58.192,5.064,51.162.431,50.862.236A1.568,1.568,0,0,0,49.3.181a1.018,1.018,0,0,0-.556,1.2c.687,2.129.092,4.376-4.985,9a5.668,5.668,0,0,0-1.83,7.021,8.478,8.478,0,0,0,1.9,2.532c-.323,1.7-.577,3.312-.751,4.881a45.524,45.524,0,0,0-.232,7.808,18.649,18.649,0,0,0-3.324,1.91L33.05,11.7c0-.023-.027-.04-.035-.061a.931.931,0,0,0-.093-.212L26.31,1.353A3.35,3.35,0,0,0,22.9.088a2.723,2.723,0,0,0-2.377,2.383l-.5,11.445a.947.947,0,0,0,.033.246v.05l6.6,23.249a18.018,18.018,0,0,0-3.086.38L16.3,23.368a2.934,2.934,0,0,0-3.484-1.177l-11.1,3.792A2.092,2.092,0,0,0,.271,28.86l9.853,19.606C4.349,48.716-.133,52.714.016,57.483s4.876,8.571,10.658,8.575H69.4a11.191,11.191,0,0,0,9.17-4.515,7.5,7.5,0,0,0-.155-8.808A11.33,11.33,0,0,0,69.095,48.443Zm-1.36-28.5,5.6-2.88-1.981,3.946a1.043,1.043,0,0,0,.722,1.439,1.449,1.449,0,0,0,1.745-.6L75.8,17.908l1.483,5.3a21.477,21.477,0,0,0-3.871,5.27A6.565,6.565,0,0,1,69,28.554a5.056,5.056,0,0,1-3.054-2.622A18.7,18.7,0,0,0,67.734,19.945Zm-3.07,8.644a8.243,8.243,0,0,0,3.328,2,10.031,10.031,0,0,0,3.266.568c.27,0,.54-.014.809-.041l-4.259,8.477a15.917,15.917,0,0,0-5.732-5.845ZM46.378,20.726l6.706.338c.041,1.028.027,2.092-.015,3.172a33.941,33.941,0,0,1-6.687-.266c-.168-.02-.332-.035-.5-.054.133-1.037.3-2.087.493-3.189Zm-.637-8.866c3.544-3.225,5.38-5.705,5.808-8.037a13.98,13.98,0,0,1,4.817,7.892,8.758,8.758,0,0,1-2.7,7.169q-3.955-.2-7.823-.4a4.273,4.273,0,0,1-1.765-3.3,4.225,4.225,0,0,1,1.662-3.332Zm-.1,14.25.387.042a45.922,45.922,0,0,0,5.2.364c.553,0,1.135-.036,1.718-.074-.121,1.417-.32,2.9-.573,4.426-.33-.014-.653-.041-.984-.041a21.328,21.328,0,0,0-5.916.84,43.854,43.854,0,0,1,.168-5.558ZM35.315,38.984,31.5,25.567a1.372,1.372,0,0,0-1.6-.8,1.116,1.116,0,0,0-1,1.3L32.33,38.145a17.8,17.8,0,0,0-2.91-.6L23.561,16.926a7.478,7.478,0,0,0,2.613.469c.084,0,.174-.01.259-.013l.944,3.324a1.212,1.212,0,0,0,.911.82,1.545,1.545,0,0,0,1.313-.254.981.981,0,0,0,.375-1.068l-.945-3.326a6.342,6.342,0,0,0,2.332-1.464l5.956,21.005A14.79,14.79,0,0,0,35.315,38.984ZM27.16,15.093A4.914,4.914,0,0,1,22.7,13.621l.17-3.878a9.476,9.476,0,0,0,1.408.11,7.161,7.161,0,0,0,1.356-.124,7.454,7.454,0,0,0,2.475-1.015l2.248,3.422a3.992,3.992,0,0,1-3.2,2.959ZM23.5,2.232a.453.453,0,0,1,.459.17l2.862,4.365a4.9,4.9,0,0,1-1.8.826,5.473,5.473,0,0,1-2.057-.08l.218-4.961A.366.366,0,0,1,23.5,2.232Zm-9.66,21.99,1.02,2.032L9.925,27.94a1.074,1.074,0,0,0-.792,1.231,1.3,1.3,0,0,0,1.306.885,1.607,1.607,0,0,0,.511-.084l4.939-1.688L16.91,30.32l-2.471.844a1.076,1.076,0,0,0-.8,1.233,1.3,1.3,0,0,0,1.311.886,1.612,1.612,0,0,0,.51-.084l2.471-.844,1.021,2.035-4.943,1.69a1.076,1.076,0,0,0-.8,1.233,1.3,1.3,0,0,0,1.311.886,1.605,1.605,0,0,0,.51-.084l4.939-1.687,1.08,2.15a13.678,13.678,0,0,0-8.643,8.677L2.735,28.013ZM69.4,63.856H10.674c-4.423,0-8.009-2.958-8.009-6.606s3.586-6.606,8.009-6.606a9.423,9.423,0,0,1,2.284.273,1.571,1.571,0,0,0,1.172-.164,1.058,1.058,0,0,0,.549-.87c.095-3.924,2.845-7.473,7.122-9.193a14.952,14.952,0,0,1,13.167,1.036,1.568,1.568,0,0,0,1.173.173,1.266,1.266,0,0,0,.873-.669c2.608-5.733,9.815-9.1,17.118-8.009s12.609,6.345,12.6,12.468a10.534,10.534,0,0,1-.674,3.715.964.964,0,0,0,.293,1.07,1.519,1.519,0,0,0,1.269.33,10.037,10.037,0,0,1,1.782-.161c4.423,0,8.009,2.958,8.009,6.606S73.827,63.856,69.4,63.856Z" transform="translate(-0.012 0)"/><path class="a" d="M38.685,15.118a1.034,1.034,0,0,0,.8-.362,6.445,6.445,0,0,0,1.33-5.4.959.959,0,0,0-.7-.668,1.062,1.062,0,0,0-.979.239.866.866,0,0,0-.248.9,4.777,4.777,0,0,1-.992,3.822.855.855,0,0,0-.094.961,1.013,1.013,0,0,0,.894.507Z" transform="translate(13.328 -0.714)"/><path class="a" d="M37.37,45.838a5.282,5.282,0,0,0-2.145.459,6.351,6.351,0,0,0-7.809-1.538A5.29,5.29,0,0,0,24.86,51.7a1.006,1.006,0,0,0,.92.558,1.066,1.066,0,0,0,.392-.073.96.96,0,0,0,.536-.5.847.847,0,0,0-.008-.7,3.474,3.474,0,0,1-.33-1.473,3.846,3.846,0,0,1,4-3.67,4,4,0,0,1,3.615,2.11,1.006,1.006,0,0,0,.07.086.909.909,0,0,0,.053.092c.018.02.044.029.064.049a.939.939,0,0,0,.155.119.98.98,0,0,0,.16.092,1.062,1.062,0,0,0,.18.051,1,1,0,0,0,.188.027,1.329,1.329,0,0,0,.382-.059c.027,0,.053-.01.079-.017a.905.905,0,0,0,.093-.063,1.078,1.078,0,0,0,.1-.05,3.118,3.118,0,0,1,1.856-.6,3.027,3.027,0,0,1,2.72,1.6,1.039,1.039,0,0,0,1.325.454.888.888,0,0,0,.495-1.216A5.045,5.045,0,0,0,37.37,45.838Z" transform="translate(11.543 7.375)"/><path class="a" d="M17.684,39.046C17.533,39.091,14,40.212,14,43.587a1,1,0,0,0,2,0,3.207,3.207,0,0,1,2.322-2.8.9.9,0,0,0,.631-1.164,1.025,1.025,0,0,0-1.269-.579Z" transform="translate(5.097 4.733)"/><path class="a" d="M31.757,37.477A1.06,1.06,0,0,0,32,37.5a.988.988,0,0,0,.969-.695,4.2,4.2,0,0,1,4.036-2.975A.921.921,0,1,0,37,32a6.141,6.141,0,0,0-5.97,4.364A.915.915,0,0,0,31.757,37.477Z" transform="translate(11.734 3.884)"/></svg>