<?xml version="1.0" encoding="utf-8"?>
<!-- Generator: Adobe Illustrator 21.0.0, SVG Export Plug-In . SVG Version: 6.00 Build 0)  -->
<svg version="1.1" id="Layer_1" xmlns="http://www.w3.org/2000/svg" xmlns:xlink="http://www.w3.org/1999/xlink" x="0px" y="0px"
	 width="450px" height="450px" viewBox="0 0 450 450" style="enable-background:new 0 0 450 450;fill:white" xml:space="preserve">
<path d="M8.4,201c18.7,54.8,67,94.2,124.4,101.6s114.1-18.6,146.1-66.9c43.1-65.1,29.8-152.2-30.6-201.5
	C187.8-15.1,99.8-10.6,44.6,44.6C3.7,85.6-10.4,146.2,8.4,201z M32,152c0-31.8,12.7-62.4,35.3-84.8c46.8-46.8,122.8-46.8,169.6,0
	c46.8,46.8,46.8,122.8,0,169.6c-46.8,46.8-122.8,46.8-169.6,0C44.7,214.4,32,183.8,32,152z"/>
<path d="M333,276.4l-56.5,56.5l105.5,105.5c15.6,15.5,40.9,15.4,56.4-0.1c15.6-15.6,15.6-40.8,0.1-56.4L333,276.4z"/>
<path d="M256.3,283.6c-1.3,1-2.4,2-3.7,3l23.8,23.8l33.9-33.9l-23.9-23.8c-0.9,1.3-2,2.4-3,3.7c-0.9,1.1-1.7,2.2-2.6,3.2
	c-3.2,3.9-6.6,7.7-10.2,11.2c-3.6,3.6-7.3,7-11.2,10.2C258.5,281.8,257.4,282.6,256.3,283.6z"/>
</svg>
