<svg xmlns="http://www.w3.org/2000/svg" width="76.815" height="66.868" viewBox="0 0 76.815 66.868"><defs><style>.a{fill:#ffe400;}</style></defs><path class="a" d="M70.413,0H14.082c-3.534,0-6.4,2.5-6.4,5.573v23.4H3.841A3.622,3.622,0,0,0,0,32.319V63.524a3.622,3.622,0,0,0,3.841,3.344H21.764A3.622,3.622,0,0,0,25.6,63.524V46.807h8.961v2.229c-3.533,0-6.4,2.5-6.4,5.573v1.115a2.415,2.415,0,0,0,2.56,2.229H53.77a2.415,2.415,0,0,0,2.56-2.229V54.609c0-3.076-2.868-5.568-6.4-5.573V46.807H70.413c3.534,0,6.4-2.5,6.4-5.572V5.573C76.81,2.5,73.947,0,70.413,0ZM3.841,31.205H21.764a1.207,1.207,0,0,1,1.281,1.114v1.115H2.56V32.319a1.207,1.207,0,0,1,1.281-1.114ZM2.56,51.266v-15.6H23.044V57.952H2.56ZM25.6,34.549V32.319a3.622,3.622,0,0,0-3.841-3.343h-6.4V6.687H69.133V35.663H25.6Zm-3.841,30.09H3.841A1.208,1.208,0,0,1,2.56,63.524V60.181H23.044v3.343a1.208,1.208,0,0,1-1.281,1.115ZM53.77,54.609l0,1.115H30.726V54.609a3.622,3.622,0,0,1,3.84-3.343H49.93a3.621,3.621,0,0,1,3.84,3.343Zm-6.4-5.573H37.127V46.807H47.369Zm26.885-7.8a3.622,3.622,0,0,1-3.841,3.343H25.6V37.892H69.133a2.415,2.415,0,0,0,2.56-2.229V6.687a2.415,2.415,0,0,0-2.56-2.229H15.363A2.415,2.415,0,0,0,12.8,6.687V28.976h-2.56V5.573a3.622,3.622,0,0,1,3.841-3.344h56.33a3.622,3.622,0,0,1,3.841,3.344Zm0,0" transform="translate(0)"/><path class="a" d="M268.376,307.2h-2.56a1.125,1.125,0,1,0,0,2.229h2.56a1.125,1.125,0,1,0,0-2.229Zm0,0" transform="translate(-224.847 -267.078)"/><path class="a" d="M79.361,470.447a1.293,1.293,0,1,1-1.281-1.115A1.206,1.206,0,0,1,79.361,470.447Zm0,0" transform="translate(-65.278 -408.036)"/><path class="a" d="M35.413,292.361h1.28a1.125,1.125,0,1,0,0-2.229h-1.28a1.125,1.125,0,1,0,0,2.229Zm0,0" transform="translate(-29.012 -252.241)"/><path class="a" d="M84.482,290.133h-6.4a1.125,1.125,0,1,0,0,2.229h6.4a1.125,1.125,0,1,0,0-2.229Zm0,0" transform="translate(-65.278 -252.241)"/><path class="a" d="M122.026,68.266h-1.281a1.125,1.125,0,1,0,0,2.229h1.281a1.125,1.125,0,1,0,0-2.229Zm0,0" transform="translate(-101.542 -59.35)"/><path class="a" d="M169.814,69.38a1.206,1.206,0,0,0-1.28-1.115h-5.121a1.125,1.125,0,1,0,0,2.229h5.121A1.206,1.206,0,0,0,169.814,69.38Zm0,0" transform="translate(-137.808 -59.35)"/><path class="a" d="M210.586,77.067l-1.8-.647a8.324,8.324,0,0,0,0-1.061l1.787-.644a2.141,2.141,0,0,0,1.387-2.913l-.979-2.059h0a2.714,2.714,0,0,0-3.346-1.206l-1.787.645a10.682,10.682,0,0,0-.863-.749l.744-1.564a1.96,1.96,0,0,0,0-1.7,2.414,2.414,0,0,0-1.384-1.2l-2.374-.857a2.708,2.708,0,0,0-3.34,1.2l-.744,1.564q-.61-.03-1.221,0l-.74-1.556a2.709,2.709,0,0,0-3.344-1.206l-2.367.854a2.14,2.14,0,0,0-1.385,2.912l.74,1.556a10.565,10.565,0,0,0-.86.751l-1.8-.647a2.711,2.711,0,0,0-3.34,1.206l-.982,2.066a1.96,1.96,0,0,0,0,1.7,2.411,2.411,0,0,0,1.385,1.205l1.8.647a8.438,8.438,0,0,0,0,1.061l-1.786.644a2.14,2.14,0,0,0-1.387,2.913l.979,2.06a2.716,2.716,0,0,0,3.346,1.206l1.788-.645a10.678,10.678,0,0,0,.863.749l-.744,1.564a1.959,1.959,0,0,0,0,1.7,2.416,2.416,0,0,0,1.384,1.2l2.374.857a2.706,2.706,0,0,0,3.341-1.2l.744-1.564q.609.03,1.22,0l.74,1.555a2.709,2.709,0,0,0,3.345,1.207l2.366-.853a2.141,2.141,0,0,0,1.385-2.912l-.74-1.557a10.654,10.654,0,0,0,.86-.751l1.8.648a2.707,2.707,0,0,0,3.34-1.2l.982-2.066a1.956,1.956,0,0,0,0-1.7,2.412,2.412,0,0,0-1.384-1.205Zm-1.961,4.121-2.676-.965a1.4,1.4,0,0,0-1.52.368,8.174,8.174,0,0,1-1.757,1.536,1.029,1.029,0,0,0-.411,1.316l1.1,2.317L201,86.613l-1.1-2.317a1.321,1.321,0,0,0-1.358-.677,9.95,9.95,0,0,1-2.491-.005,1.313,1.313,0,0,0-1.374.675l-1.1,2.328-2.373-.852,1.109-2.329a1.031,1.031,0,0,0-.424-1.324,8.191,8.191,0,0,1-1.765-1.53,1.4,1.4,0,0,0-1.511-.357l-2.662.96-.979-2.06,2.661-.959a1.1,1.1,0,0,0,.778-1.183,6.6,6.6,0,0,1,.006-2.168,1.1,1.1,0,0,0-.775-1.2l-2.675-.961.978-2.066,2.676.965a1.4,1.4,0,0,0,1.52-.368,8.187,8.187,0,0,1,1.757-1.536,1.03,1.03,0,0,0,.411-1.316l-1.1-2.317,2.365-.853,1.1,2.317a1.313,1.313,0,0,0,1.359.677,9.945,9.945,0,0,1,2.49.005,1.3,1.3,0,0,0,1.374-.675l1.1-2.328,2.373.852-1.109,2.329a1.03,1.03,0,0,0,.424,1.324,8.218,8.218,0,0,1,1.765,1.53,1.407,1.407,0,0,0,1.511.358l2.663-.957.978,2.056-2.661.959a1.1,1.1,0,0,0-.778,1.183,6.6,6.6,0,0,1-.006,2.168,1.1,1.1,0,0,0,.775,1.2l2.675.96Zm0,0" transform="translate(-155.033 -54.715)"/><path class="a" d="M254.542,128.34a5.565,5.565,0,0,0-6.217,1.642,4.036,4.036,0,0,0,.637,5.629,5.7,5.7,0,0,0,6.466.554,4.15,4.15,0,0,0,1.886-5.412A4.8,4.8,0,0,0,254.542,128.34Zm-.979,6.177a2.707,2.707,0,0,1-3.345-1.206A2.138,2.138,0,0,1,251.6,130.4a2.708,2.708,0,0,1,3.345,1.206,1.955,1.955,0,0,1,0,1.708,2.408,2.408,0,0,1-1.39,1.2Zm0,0" transform="translate(-210.335 -111.284)"/><path class="a" d="M47.311,324.683l-10.617,9.242v-4a1.293,1.293,0,0,0-2.56,0v6.687a.983.983,0,0,0,.09.389,1.051,1.051,0,0,0,.057.106,1.136,1.136,0,0,0,.18.233,1.149,1.149,0,0,0,.088.085,1.279,1.279,0,0,0,.34.2c.011,0,.019.013.031.017l0,0a1.451,1.451,0,0,0,.491.085h7.681a1.125,1.125,0,1,0,0-2.229H38.5l10.617-9.243a1.014,1.014,0,0,0-.015-1.562A1.419,1.419,0,0,0,47.311,324.683Zm0,0" transform="translate(-29.012 -282.007)"/></svg>